# File created by Blade
# Date/Time:  Thu Sep 25 15:55:53 2014
# Frame Rate: 120.000 fps
#------------------------------------------------------
:FULLY-SPECIFIED
:DEGREES
597
root -4.418127 33.860702 -2.130319 54.384154 1.501808 18.400997
Spine -13.882651 3.848639 -1.071416
Head -58.243604 -7.249417 -1.174167
LeftShoulder 6.645052 13.306064 12.016249
LeftArm 43.628566 16.573774 -56.854803
LeftForeArm 8.560749 0.000000 24.610369
LeftHand -22.993459 -0.000000 9.903557
LeftHandThumb1 -26.253704 0.000000 33.147579
RightShoulder -4.833492 10.355245 -30.249949
RightArm -9.806372 -5.765584 53.907957
RightForeArm -18.472672 -0.000000 39.718783
RightHand -1.668155 -0.000000 -3.046920
RightHandThumb1 -24.326973 -0.000000 -32.862282
LeftUpLeg -31.087148 -4.098103 -12.605126
LeftLeg -4.162320 -0.000000 0.000000
LeftFoot 10.900980 17.622917 -18.892897
LeftToeBase 4.458791 -0.000000 -0.000000
RightUpLeg -63.730205 -15.928095 0.420428
RightLeg 12.161628 -0.000000 -0.000000
RightFoot -5.760479 -2.701438 -6.922313
RightToeBase -6.764060 -0.000000 0.000000
598
root -4.445121 33.833884 -2.019884 54.889041 1.779540 18.175660
Spine -14.512242 3.682314 -0.445991
Head -58.341969 -7.146264 -1.409288
LeftShoulder 6.436982 13.202576 12.235171
LeftArm 43.978390 15.673495 -57.355774
LeftForeArm 10.774732 -0.000000 26.767921
LeftHand -23.490347 -0.000000 10.948232
LeftHandThumb1 -26.253704 0.000000 33.147579
RightShoulder -5.038538 10.054225 -30.325783
RightArm -10.612044 -5.190110 53.531350
RightForeArm -18.209791 0.000000 39.831142
RightHand -1.664456 -0.000000 -3.116383
RightHandThumb1 -24.326973 -0.000000 -32.862282
LeftUpLeg -28.141794 -2.995519 -11.808173
LeftLeg -4.299265 -0.000000 0.000000
LeftFoot 14.806914 17.660544 -16.390586
LeftToeBase 7.956063 -0.000000 -0.000000
RightUpLeg -63.924371 -15.763513 0.765988
RightLeg 12.016886 -0.000000 -0.000000
RightFoot -5.916175 -2.898909 -7.343674
RightToeBase -7.041122 -0.000000 0.000000
599
root -4.474177 33.806562 -1.901137 55.386324 2.068274 17.879530
Spine -15.212154 3.442801 0.244116
Head -58.419807 -6.975599 -1.660541
LeftShoulder 6.134203 13.119088 12.359990
LeftArm 44.190252 14.884092 -57.847335
LeftForeArm 12.828483 -0.000000 28.984258
LeftHand -23.822178 -0.000000 11.925011
LeftHandThumb1 -26.253704 0.000000 33.147579
RightShoulder -5.208485 9.776346 -30.339707
RightArm -11.469782 -4.840846 53.155184
RightForeArm -17.623670 0.000000 39.982078
RightHand -1.729554 -0.000000 -3.024290
RightHandThumb1 -24.326973 -0.000000 -32.862282
LeftUpLeg -25.161661 -2.079554 -10.651036
LeftLeg -4.157640 -0.000000 0.000000
LeftFoot 18.974022 17.825696 -15.107406
LeftToeBase 8.988369 -0.000000 -0.000000
RightUpLeg -64.113496 -15.580120 1.199334
RightLeg 11.900106 -0.000000 -0.000000
RightFoot -6.103284 -2.963101 -7.721630
RightToeBase -7.242511 -0.000000 0.000000
600
root -4.491064 33.787929 -1.792263 55.944476 2.298149 17.683233
Spine -16.026804 3.097059 0.784180
Head -58.407534 -6.777661 -1.844566
LeftShoulder 5.957437 13.018313 12.643807
LeftArm 44.178037 14.097948 -58.566105
LeftForeArm 14.496042 0.000000 31.330367
LeftHand -24.427143 0.000000 12.762798
LeftHandThumb1 -26.253704 0.000000 33.147579
RightShoulder -5.404034 9.346647 -30.327532
RightArm -12.161442 -4.596464 52.830777
RightForeArm -16.865322 -0.000000 39.817271
RightHand -1.201680 0.000000 -3.040585
RightHandThumb1 -24.326973 -0.000000 -32.862282
LeftUpLeg -22.238630 -1.383746 -9.419690
LeftLeg -3.583479 -0.000000 0.000000
LeftFoot 22.382803 18.371669 -15.776811
LeftToeBase 9.489605 -0.000000 -0.000000
RightUpLeg -64.410405 -15.456607 1.524788
RightLeg 11.836598 -0.000000 -0.000000
RightFoot -6.244110 -2.978358 -8.126382
RightToeBase -7.469150 -0.000000 0.000000
601
root -4.515129 33.773959 -1.684694 56.472581 2.470109 17.387515
Spine -16.837491 2.774091 1.279339
Head -58.393858 -6.502757 -1.932335
LeftShoulder 5.730275 13.182482 12.919686
LeftArm 44.431832 13.298349 -59.094023
LeftForeArm 15.634491 -0.000000 33.443600
LeftHand -24.769857 -0.000000 13.601686
LeftHandThumb1 -26.253704 0.000000 33.147579
RightShoulder -5.650261 8.912647 -30.254696
RightArm -12.737175 -4.536654 52.592229
RightForeArm -16.238795 0.000000 39.568166
RightHand -1.238009 -0.000000 -3.102511
RightHandThumb1 -24.326973 -0.000000 -32.862282
LeftUpLeg -19.251733 -0.722597 -8.001706
LeftLeg -2.864054 -0.000000 0.000000
LeftFoot 25.639776 19.156513 -17.058475
LeftToeBase 10.316362 -0.000000 -0.000000
RightUpLeg -64.630449 -15.151094 1.766021
RightLeg 11.705898 -0.000000 -0.000000
RightFoot -6.270696 -3.048251 -8.443277
RightToeBase -7.656274 -0.000000 0.000000
